HIERARCHY
ROOT Hips
{
	OFFSET 0.000000 0.000000 0.000000 
	CHANNELS 6 Xposition Yposition Zposition Zrotation Yrotation Xrotation
	JOINT LeftUpLeg
	{
		OFFSET 1.363060 -1.794630 0.839290 
		CHANNELS 3 Zrotation Yrotation Xrotation
		JOINT LeftLeg
		{
			OFFSET 2.448110 -6.726130 0.000000 
			CHANNELS 3 Zrotation Yrotation Xrotation
			JOINT LeftFoot
			{
				OFFSET 2.562200 -7.039590 0.000000 
				CHANNELS 3 Zrotation Yrotation Xrotation
				JOINT LeftToeBase
				{
					OFFSET 0.157640 -0.433110 2.322550 
					CHANNELS 3 Zrotation Yrotation Xrotation
					End Site
					{
						OFFSET 0.000000 0.000000 0.000000 
					}
				}
			}
		}
	}
	JOINT RightUpLeg
	{
		OFFSET -1.305520 -1.794630 0.839290 
		CHANNELS 3 Zrotation Yrotation Xrotation
		JOINT RightLeg
		{
			OFFSET -2.542530 -6.985550 0.000000 
			CHANNELS 3 Zrotation Yrotation Xrotation
			JOINT RightFoot
			{
				OFFSET -2.568260 -7.056230 0.000000 
				CHANNELS 3 Zrotation Yrotation Xrotation
				JOINT RightToeBase
				{
					OFFSET -0.164730 -0.452590 2.363150 
					CHANNELS 3 Zrotation Yrotation Xrotation
					End Site
					{
						OFFSET 0.000000 0.000000 0.000000 
					}
				}
			}
		}
	}
	JOINT Spine
	{
		OFFSET 0.028270 2.035590 -0.193380 
		CHANNELS 3 Zrotation Yrotation Xrotation
		JOINT Spine1
		{
			OFFSET 0.056720 2.048850 -0.042750 
			CHANNELS 3 Zrotation Yrotation Xrotation
			JOINT Neck1
			{
				OFFSET -0.054170 1.746240 0.172020 
				CHANNELS 3 Zrotation Yrotation Xrotation
				JOINT Head
				{
					OFFSET 0.104070 1.761360 -0.123970 
					CHANNELS 3 Zrotation Yrotation Xrotation
					End Site
					{
						OFFSET 0.000000 0.000000 0.000000 
					}
				}
			}
			JOINT LeftArm
			{
				OFFSET 3.362410 1.200890 -0.311210 
				CHANNELS 3 Zrotation Yrotation Xrotation
				JOINT LeftForeArm
				{
					OFFSET 4.983000 -0.000000 -0.000000 
					CHANNELS 3 Zrotation Yrotation Xrotation
					JOINT LeftHand
					{
						OFFSET 3.483560 -0.000000 -0.000000 
						CHANNELS 3 Zrotation Yrotation Xrotation
						JOINT LeftHandIndex1
						{
							OFFSET 0.715260 -0.000000 -0.000000 
							CHANNELS 3 Zrotation Yrotation Xrotation
							End Site
							{
								OFFSET 0.000000 0.000000 0.000000 
							}
						}
					}
				}
			}
			JOINT RightArm
			{
				OFFSET -3.136600 1.374050 -0.404650 
				CHANNELS 3 Zrotation Yrotation Xrotation
				JOINT RightForeArm
				{
					OFFSET -5.241900 -0.000000 -0.000000 
					CHANNELS 3 Zrotation Yrotation Xrotation
					JOINT RightHand
					{
						OFFSET -3.444170 -0.000000 -0.000000 
						CHANNELS 3 Zrotation Yrotation Xrotation
						JOINT RightHandIndex1
						{
							OFFSET -0.622530 -0.000000 -0.000000 
							CHANNELS 3 Zrotation Yrotation Xrotation
							End Site
							{
								OFFSET 0.000000 0.000000 0.000000 
							}
						}
					}
				}
			}
		}
	}
}
MOTION
Frames: 16
Frame Time: 0.041667
-0.180814 17.503285 -1.839684 0.866089 -1.076115 3.392292 -23.872426 -8.947997 -8.125086 1.020432 6.619870 22.611584 -0.405690 5.397067 -11.430405 0.673900 -5.249300 -14.621000 26.171747 8.170611 -9.308527 -2.580374 -7.451138 25.694002 0.553064 -9.769826 -15.286477 -0.511400 4.583600 -12.724700 0.068566 3.591012 -1.267908 -4.126958 1.695922 0.072373 4.934042 -8.715404 12.663567 1.803600 -4.241500 5.060200 -91.719291 -45.712327 106.536758 60.945598 -52.276485 -33.017032 3.281525 0.228927 34.955629 -7.125000 0.000000 0.000000 99.577768 50.492725 115.372521 -98.632701 56.941002 -59.697406 -0.872366 -0.469249 14.276683 7.125000 0.000000 0.000000 
-0.184319 17.500559 -1.845234 0.802664 -1.019645 3.396154 -23.786476 -8.976540 -8.226482 1.037122 6.660906 22.715689 -0.418782 5.437720 -11.351598 0.721100 -5.426100 -15.128000 26.255729 8.173583 -9.354146 -2.589211 -7.472296 25.756651 0.553025 -9.767732 -15.283372 -0.507800 4.567800 -12.679700 0.072338 3.584559 -1.240742 -4.174992 1.696105 0.093648 4.945757 -8.691705 12.544217 1.809800 -4.230500 4.997400 -91.765086 -45.600074 106.592893 60.903449 -52.274145 -32.986700 3.272363 0.230030 34.711232 -7.125000 0.000000 0.000000 99.478553 50.276651 115.192603 -98.560774 56.948434 -59.620113 -0.868881 -0.469352 14.328320 7.125000 0.000000 0.000000 
-0.187240 17.497638 -1.849810 0.835536 -0.982469 3.380737 -23.812626 -9.038197 -8.275548 1.055579 6.702167 22.832288 -0.399733 5.343595 -11.359508 0.670100 -5.234900 -14.579900 26.230265 8.174711 -9.393308 -2.600936 -7.498161 25.831718 0.553415 -9.800452 -15.336320 -0.503900 4.550700 -12.631300 0.063265 3.573477 -1.210365 -4.186757 1.692431 0.120304 4.971528 -8.684498 12.522740 1.817000 -4.224100 5.005800 -91.795502 -45.482126 106.678373 60.752291 -52.245002 -32.863188 3.263417 0.228234 34.267033 -7.125000 0.000000 0.000000 99.406831 50.141217 115.038505 -98.416624 56.972003 -59.473945 -0.872448 -0.462081 14.408690 7.125000 0.000000 0.000000 
-0.187629 17.494230 -1.852536 0.834278 -0.978071 3.388411 -23.811756 -9.086837 -8.333699 1.072868 6.743881 22.947594 -0.373065 5.263210 -11.501330 0.629700 -5.077600 -14.129900 26.233088 8.184444 -9.466417 -2.617222 -7.535740 25.939376 0.556038 -9.846857 -15.388430 -0.517900 4.612600 -12.806800 0.053579 3.549646 -1.166759 -4.223361 1.683869 0.214810 5.021402 -8.657800 12.540219 1.839800 -4.207100 5.057800 -91.767750 -45.427774 106.772647 60.629913 -52.215148 -32.760459 3.251894 0.245070 33.773892 -7.125000 0.000000 0.000000 99.364082 50.282715 114.980331 -98.300738 56.991450 -59.363844 -0.880549 -0.457591 14.399997 7.125000 0.000000 0.000000 
-0.188408 17.491212 -1.854192 0.834847 -0.983278 3.375634 -23.810919 -9.091119 -8.361671 1.083143 6.768029 23.014780 -0.364267 5.242896 -11.561342 0.655200 -5.177300 -14.414900 26.228867 8.158481 -9.564109 -2.645011 -7.594047 26.112199 0.534527 -9.752395 -15.453506 -0.521400 4.627700 -12.849700 0.057073 3.515778 -1.128943 -4.223098 1.669402 0.281086 5.052141 -8.592183 12.525307 1.862700 -4.174600 5.079800 -91.709020 -45.320379 106.962521 60.576852 -52.201994 -32.718285 3.250011 0.307848 33.218632 -7.125000 0.000000 0.000000 99.329795 50.350287 115.002099 -98.201360 57.008760 -59.265493 -0.887843 -0.446179 14.399583 7.125000 0.000000 0.000000 
-0.189187 17.488777 -1.856529 0.835217 -0.953829 3.369972 -23.809642 -9.083296 -8.408176 1.091776 6.787498 23.067128 -0.367047 5.244450 -11.525658 0.689100 -5.307000 -14.786400 26.216614 8.135710 -9.640943 -2.674586 -7.653342 26.292017 0.474128 -9.459218 -15.602486 -0.422300 4.170700 -11.557300 0.051113 3.499865 -1.119490 -4.263331 1.662178 0.264043 5.048698 -8.550650 12.432609 1.858200 -4.154300 5.014300 -91.646845 -45.068363 107.176217 60.503614 -52.194668 -32.666691 3.251744 0.358508 32.551142 -7.125000 0.000000 0.000000 99.197073 50.217417 114.886997 -98.132032 57.013185 -59.196163 -0.889455 -0.436870 14.461560 7.125000 0.000000 0.000000 
-0.191719 17.487998 -1.858963 0.929877 -0.939699 3.369237 -23.906990 -9.071090 -8.456602 1.101610 6.807627 23.127334 -0.360571 5.195916 -11.484626 0.679600 -5.271000 -14.683200 26.112775 8.092610 -9.698833 -2.699913 -7.700676 26.434756 0.425260 -9.197729 -15.677184 -0.345600 3.777300 -10.450900 0.021085 3.531504 -1.126996 -4.289580 1.676742 0.203116 5.041950 -8.579278 12.356026 1.848300 -4.168700 4.941300 -91.667688 -44.756570 107.253826 60.203146 -52.141926 -32.422019 3.243711 0.362283 32.128073 -7.125000 0.000000 0.000000 98.949657 50.023304 114.618776 -98.107705 56.998321 -59.184644 -0.892461 -0.442759 14.435167 7.125000 0.000000 0.000000 
-0.193666 17.487122 -1.862273 0.960790 -0.934007 3.362045 -23.934648 -9.092244 -8.491628 1.112610 6.831510 23.195182 -0.352050 5.150753 -11.480187 0.668600 -5.228900 -14.562500 26.082433 8.076651 -9.772755 -2.715403 -7.734022 26.530222 0.430567 -9.235733 -15.679033 -0.362700 3.868900 -10.708200 0.005029 3.544379 -1.124040 -4.322995 1.683432 0.171781 5.023738 -8.589078 12.315465 1.834300 -4.173300 4.907700 -91.731209 -44.494460 107.162765 59.820022 -52.066587 -32.102387 3.229496 0.351713 31.941566 -7.125000 0.000000 0.000000 98.798484 49.945721 114.522027 -98.077404 56.991577 -59.159370 -0.889423 -0.450091 14.352951 7.125000 0.000000 0.000000 
-0.195419 17.483325 -1.866363 0.962243 -0.933933 3.366615 -23.932976 -9.104844 -8.549103 1.124354 6.859407 23.269229 -0.359244 5.177533 -11.445890 0.692900 -5.321400 -14.827700 26.089265 8.134856 -9.881723 -2.723536 -7.759070 26.592021 0.469673 -9.473962 -15.660336 -0.447300 4.290900 -11.896600 0.018748 3.492210 -1.110308 -4.290643 1.657124 0.172382 4.957486 -8.511400 12.285659 1.796300 -4.134700 4.892100 -91.648882 -44.321777 107.145853 59.643409 -52.029167 -31.951394 3.220145 0.391899 31.429524 -7.125000 0.000000 0.000000 98.819701 49.972206 114.712795 -97.972994 57.012002 -59.053201 -0.888279 -0.456778 14.175285 7.125000 0.000000 0.000000 
-0.195906 17.480209 -1.867921 0.929666 -0.944794 3.410242 -23.889612 -9.106416 -8.667228 1.141482 6.902096 23.379763 -0.339406 5.099341 -11.503928 0.672500 -5.243800 -14.605400 26.116461 8.169568 -9.988819 -2.727469 -7.774028 26.624034 0.478447 -9.512934 -15.627727 -0.492400 4.498900 -12.484700 0.016779 3.461737 -1.086099 -4.319282 1.643909 0.233383 4.957181 -8.463454 12.173172 1.787800 -4.108900 4.840400 -91.528269 -44.244769 107.292250 59.435702 -51.976318 -31.774756 3.204827 0.411336 30.574328 -7.125000 0.000000 0.000000 98.809240 50.043189 114.785571 -97.884953 57.028771 -58.966348 -0.893846 -0.453499 13.872217 7.125000 0.000000 0.000000 
-0.196003 17.476898 -1.869284 0.898779 -0.974296 3.442610 -23.850005 -9.098309 -8.784623 1.160680 6.948561 23.503209 -0.329136 5.078567 -11.578682 0.666400 -5.220500 -14.538700 26.147629 8.173836 -10.079158 -2.736516 -7.796277 26.683395 0.474524 -9.476874 -15.602832 -0.510400 4.579300 -12.712500 0.024884 3.432127 -1.068743 -4.311737 1.631745 0.269742 4.982334 -8.420449 12.101490 1.807400 -4.089300 4.808800 -91.512957 -44.151086 107.335387 58.938871 -51.854047 -31.354409 3.180635 0.393288 29.755005 -7.125000 0.000000 0.000000 98.630032 50.006875 114.808716 -97.977011 56.996131 -59.063483 -0.889810 -0.457091 13.595339 7.125000 0.000000 0.000000 
-0.196490 17.474367 -1.870355 0.899409 -1.032258 3.494385 -23.840898 -9.086507 -8.908014 1.176936 6.989202 23.609415 -0.309572 5.009194 -11.654059 0.654600 -5.175100 -14.408800 26.141243 8.218932 -10.218543 -2.754416 -7.837784 26.796035 0.461780 -9.402258 -15.604817 -0.504700 4.553900 -12.640600 0.039098 3.406081 -1.070263 -4.254623 1.618685 0.259510 5.038477 -8.364166 12.015152 1.850600 -4.065500 4.756600 -91.443444 -43.914501 107.401678 58.606270 -51.777594 -31.075588 3.159576 0.426663 29.019273 -7.125000 0.000000 0.000000 98.485170 49.933569 114.845996 -98.002852 56.978537 -59.093537 -0.887579 -0.462647 13.303296 7.125000 0.000000 0.000000 
-0.196685 17.470277 -1.872400 0.964447 -1.062198 3.497186 -23.921229 -9.082141 -8.961843 1.193001 7.023622 23.709654 -0.309322 5.017451 -11.670574 0.684400 -5.289100 -14.735000 26.063007 8.209102 -10.329675 -2.777765 -7.886113 26.934235 0.445864 -9.327689 -15.641721 -0.494900 4.510600 -12.517700 0.034034 3.374603 -1.062971 -4.223844 1.601782 0.250154 4.996152 -8.336400 11.976756 1.824400 -4.051800 4.725700 -91.291910 -43.676347 107.483964 58.422365 -51.735927 -30.917643 3.134861 0.478177 28.303396 -7.125000 0.000000 0.000000 98.373269 49.870319 114.844416 -97.935540 56.981331 -59.037760 -0.897916 -0.470288 13.134229 7.125000 0.000000 0.000000 
-0.196295 17.468135 -1.873958 1.030029 -1.102574 3.491147 -24.005739 -9.073201 -9.009037 1.209978 7.059543 23.815216 -0.323610 5.102906 -11.685095 0.744100 -5.510300 -15.369900 25.985502 8.224025 -10.424445 -2.802639 -7.937710 27.083259 0.431629 -9.280000 -15.709243 -0.497500 4.522200 -12.550700 0.026723 3.361141 -1.048637 -4.203006 1.594867 0.252104 4.976412 -8.328780 11.930230 1.811800 -4.048300 4.697200 -91.236220 -43.504983 107.386122 58.106012 -51.659372 -30.647486 3.112162 0.487496 27.935384 -7.125000 0.000000 0.000000 98.277293 49.835036 114.828627 -97.871408 56.984496 -58.985005 -0.907212 -0.480264 13.080543 7.125000 0.000000 0.000000 
-0.197561 17.464922 -1.878242 0.998604 -1.079980 3.457187 -23.965230 -9.079012 -9.035870 1.225940 7.092842 23.910305 -0.317015 5.081458 -11.713355 0.741100 -5.499400 -15.338500 26.027611 8.233091 -10.495042 -2.831466 -7.996485 27.263089 0.418578 -9.253433 -15.807797 -0.503100 4.546800 -12.620400 0.037164 3.335702 -1.032647 -4.193608 1.583370 0.221727 4.929686 -8.333318 11.821641 1.788600 -4.052800 4.633600 -91.199487 -43.389492 107.286282 57.446414 -51.483707 -30.093485 3.114801 0.476568 28.087384 -7.125000 0.000000 0.000000 98.098624 49.850176 114.769282 -97.916375 56.959429 -59.043083 -0.904283 -0.491495 12.969409 7.125000 0.000000 0.000000 
-0.198827 17.461319 -1.883402 0.967154 -1.081550 3.440577 -23.919305 -9.048954 -9.097963 1.240241 7.123005 23.993162 -0.298233 4.974956 -11.694436 0.702300 -5.356500 -14.928200 26.073101 8.252751 -10.572708 -2.863152 -8.059406 27.455888 0.399084 -9.163640 -15.864021 -0.466600 4.381400 -12.152400 0.045329 3.312060 -1.023548 -4.189944 1.572175 0.180767 4.907618 -8.318655 11.704131 1.778700 -4.047500 4.565000 -91.147890 -43.239203 107.222948 56.739044 -51.290155 -29.506959 3.122551 0.438337 28.142758 -7.125000 0.000000 0.000000 97.941664 49.879395 114.696529 -97.873539 56.953525 -59.011153 -0.904430 -0.499184 12.901112 7.125000 0.000000 0.000000 
